<?xml version="1.0" encoding="utf-8"?>
<!-- Generator: Adobe Illustrator 16.0.0, SVG Export Plug-In . SVG Version: 6.00 Build 0)  -->
<!DOCTYPE svg PUBLIC "-//W3C//DTD SVG 1.1//EN" "http://www.w3.org/Graphics/SVG/1.1/DTD/svg11.dtd">
<svg version="1.1" id="Layer_1" xmlns="http://www.w3.org/2000/svg" xmlns:xlink="http://www.w3.org/1999/xlink" x="0px" y="0px"
	 width="512px" height="512px" viewBox="0 0 512 512" enable-background="new 0 0 512 512" xml:space="preserve">
<g transform="translate(3.902 4.902)">
	<path id="path-1" fill="#8494AB" d="M182.616,169.361c12.497,12.497,12.497,32.758,0,45.255c-12.497,12.497-32.758,12.497-45.255,0
		c-12.497-12.497-12.497-32.758,0-45.255C149.858,156.864,170.119,156.864,182.616,169.361"/>
</g>
<g transform="translate(9.902 4.902)">
	<path id="path-1_1_" fill="#8494AB" d="M374.615,169.361c12.497,12.497,12.497,32.758,0,45.255
		c-12.496,12.497-32.758,12.497-45.254,0c-12.497-12.497-12.497-32.758,0-45.255C341.857,156.864,362.119,156.864,374.615,169.361"
		/>
</g>
<path fill="#8494AB" stroke="#8494AB" stroke-width="20.558" stroke-miterlimit="10" d="M256.011,16.526
	c-132.342,0-240.015,107.211-240.015,238.987c0,131.776,107.673,238.987,240.015,238.987c132.342,0,240.015-107.211,240.015-238.987
	C496.025,123.737,388.353,16.526,256.011,16.526z M256.011,464.627c-115.803,0-210.013-93.808-210.013-209.114
	s94.21-209.114,210.013-209.114c115.803,0,210.013,93.807,210.013,209.114S371.813,464.627,256.011,464.627z"/>
<path fill="#8494AB" d="M256,384c61.855,0,112-42.98,112-96H144C144,341.02,194.145,384,256,384z"/>
</svg>
