<svg xmlns="http://www.w3.org/2000/svg" width="301" height="92" fill="none" xmlns:v="https://vecta.io/nano"><path d="M46.38 91.65c25.217 0 45.66-20.443 45.66-45.66S71.597.33 46.38.33.72 20.773.72 45.99s20.443 45.66 45.66 45.66z" fill="url(#A)"/><path d="M78.39 57.77l.49-1.55a33.55 33.55 0 0 0-12.504-37.311 33.55 33.55 0 0 0-39.35.232 33.55 33.55 0 0 0-12.064 37.455A33.55 33.55 0 0 0 46.78 79.75a34 34 0 0 0 7.09-.76 39.51 39.51 0 0 0 12.72-5.63l3.69-2.71 14.69-.43-6.58-12.45zm-32 15.24a27 27 0 0 1-24.191-14.988A27 27 0 0 1 24.87 29.69l-2.68-2.12 14.26 7.31 8.25 4.2a2.93 2.93 0 0 1 1.837 2.27 2.93 2.93 0 0 1-1.037 2.73L34.17 55.41c-1.67 1.68-1.15 3.43 1.18 3.9l29.78 6.16A26.92 26.92 0 0 1 46.38 73l.01.01zm17.15-13.52L54 54.88a2.84 2.84 0 0 1-1.85-2.201 2.84 2.84 0 0 1 1.02-2.689l9.37-9.38c1.68-1.68 1.18-3.5-1.14-4.07l-35-8.66a27 27 0 0 1 36.189-3.693A27 27 0 0 1 69.61 59.88l10.61 7.48c.05 0 0 .1 0 .08l-16.68-7.95z" fill="#fff"/><path d="M54 54.88l26.13 12.59s.1 0 0-.08L54.08 49l-1 1a2.84 2.84 0 0 0 .92 4.88zm-9.31-15.81l-22.5-11.52 22.22 17.58 1.09-1.09a2.93 2.93 0 0 0-.81-4.97z" fill="#00dc9b"/><path d="M110.89 27.29H147v3.61l-19.72 30.47h20.23v11H109.8v-4L130 37.6h-19.11V27.29zm63.55 15.46l9.73-15.46h14.37v.58l-17.91 26.54v18h-12.76v-18L150.73 27.8v-.51h14.37l9.34 15.46zm70.22 29.64h-14l-10.5-14.63h-4.45v14.63h-12.8v-45.1h22c11.53 0 17.52 7.41 17.52 15.53 0 5.54-1.93 10.24-9.53 13.59l11.72 15.21.04.77zm-29-34.92v10.82h9.41c3.35 0 4.83-2.51 4.83-5.22s-1.61-5.6-5-5.6h-9.24zM284.14 65H264l-3 7.41h-13.53l20.24-45.1h12.88l20.17 45.1H287.1L284.14 65zm-10.06-25.08l-5.79 14.36h11.53l-5.74-14.36z" fill="#fff"/><defs><linearGradient id="A" x1="275.494" y1="5.1" x2="230.257" y2="165.146" gradientUnits="userSpaceOnUse"><stop offset=".05" stop-color="#00dc9b"/><stop offset=".33" stop-color="#04b7a5"/><stop offset=".96" stop-color="#0c59bf"/><stop offset="1" stop-color="#0d52c1"/></linearGradient></defs></svg>